<svg width="62" height="50" viewBox="0 0 62 50" fill="none" xmlns="http://www.w3.org/2000/svg">
<rect x="0.436279" width="60.9683" height="50" fill="white"/>
<path d="M37.218 13.6703L24.8082 17.7953C16.4663 20.5865 16.4663 25.1378 24.8082 27.9153L28.4913 29.139L29.7144 32.824C32.4904 41.1703 37.0531 41.1703 39.8291 32.824L43.9657 20.4215C45.8073 14.8528 42.7838 11.814 37.218 13.6703ZM37.6578 21.0678L32.4355 26.3203C32.2293 26.5265 31.9682 26.6228 31.7071 26.6228C31.446 26.6228 31.1849 26.5265 30.9787 26.3203C30.787 26.1262 30.6795 25.8644 30.6795 25.5915C30.6795 25.3187 30.787 25.0568 30.9787 24.8628L36.201 19.6103C36.5996 19.2115 37.2592 19.2115 37.6578 19.6103C38.0563 20.009 38.0563 20.669 37.6578 21.0678Z" fill="black"/>
</svg>
